<?xml version="1.0" standalone="no"?><!DOCTYPE svg PUBLIC "-//W3C//DTD SVG 1.1//EN" "http://www.w3.org/Graphics/SVG/1.1/DTD/svg11.dtd"><svg t="1728982673518" class="icon" viewBox="0 0 1024 1024" version="1.1" xmlns="http://www.w3.org/2000/svg" p-id="9038" xmlns:xlink="http://www.w3.org/1999/xlink" width="200" height="200"><path d="M548.906667 151.722667l318.677333 213.269333A64 64 0 0 1 896 418.176V832a64 64 0 0 1-64 64H192a64 64 0 0 1-64-64V418.325333a64 64 0 0 1 28.586667-53.333333L477.909333 151.637333a64 64 0 0 1 70.997334 0.106667z m-44.842667 68.053333l-2.474667 1.429333-280.96 186.474667a64 64 0 0 0-28.48 49.066667l-0.149333 4.266666V810.666667a21.333333 21.333333 0 0 0 18.837333 21.184L213.333333 832h597.333334a21.333333 21.333333 0 0 0 21.184-18.837333L832 810.666667V460.842667a64 64 0 0 0-24.938667-50.709334l-3.456-2.474666-278.336-186.410667a21.333333 21.333333 0 0 0-21.205333-1.450667zM512 576.490667a32 32 0 0 1 32 32v160h-64v-160a32 32 0 0 1 32-32z" p-id="9039"></path></svg>