<?xml version="1.0" standalone="no"?><!DOCTYPE svg PUBLIC "-//W3C//DTD SVG 1.1//EN" "http://www.w3.org/Graphics/SVG/1.1/DTD/svg11.dtd"><svg t="1729162732327" class="icon" viewBox="0 0 1025 1024" version="1.1" xmlns="http://www.w3.org/2000/svg" p-id="6038" xmlns:xlink="http://www.w3.org/1999/xlink" width="200.1953125" height="200"><path d="M870.872997 716.777741c-65.016933 0-122.866644 40.955548-144.368308 102.38887H256.539775c-77.303597 6.143332-145.90414-50.682491-153.583306-127.986088 7.679165-77.303597 76.279708-134.12942 153.583306-127.986088h111.603868c29.180828 79.351375 117.747201 120.306923 197.098576 91.126095 41.979437-15.358331 75.25582-48.634713 91.126094-91.126095h112.115813c134.12942 6.143332 248.293011-96.245538 255.972176-230.374958-7.679165-134.12942-121.842756-236.51829-255.972176-230.374958H298.519211C270.362272 22.5812 182.307844-19.398237 102.444525 8.758702S-19.398231 124.97007 8.758708 204.833389 124.970076 326.676145 204.833395 298.519205c43.51527-15.358331 78.327486-49.658602 93.685816-93.685816h469.964915c77.303597-6.143332 145.90414 50.682491 153.583306 127.986088-7.679165 77.303597-76.279708 134.12942-153.583306 127.986088h-111.603868c-29.180828-79.863319-117.235257-120.818867-196.586631-92.149983-43.003326 15.358331-76.279708 49.146658-92.149984 92.149983H256.539775c-134.12942-6.143332-248.293011 96.245538-255.972176 230.374958 7.679165 134.12942 121.842756 236.51829 255.972176 230.374958h469.964914c28.156939 79.863319 116.211368 121.842756 196.074687 93.685817s121.842756-116.211368 93.685816-196.074687c-22.013607-61.433322-80.375263-102.38887-145.392195-102.38887z" p-id="6039"></path></svg>