<?xml version="1.0" standalone="no"?><!DOCTYPE svg PUBLIC "-//W3C//DTD SVG 1.1//EN" "http://www.w3.org/Graphics/SVG/1.1/DTD/svg11.dtd"><svg t="1729670919712" class="icon" viewBox="0 0 1024 1024" version="1.1" xmlns="http://www.w3.org/2000/svg" p-id="27573" xmlns:xlink="http://www.w3.org/1999/xlink" width="200" height="200"><path d="M911.358 729.258c0 37.19-30.26 67.32-67.5 67.32L567.319 796.578c-18.505 0-47.11 7.29-63.235 15.92l-209.257 112.08c-32.992 17.67-59.732 1.91-59.732-35.86l0-58.21c0-18.74-14.995-33.93-34.132-33.93l-33.497 0c-37.345 0-67.625-30.37-67.625-67.32L99.841 187.632c0-37.177 30.332-67.315 67.792-67.315l675.931 0c37.445 0 67.795 30.372 67.795 67.315L911.359 729.258 911.358 729.258zM235.094 728.948c37.345 0 67.625 30.48 67.625 67.47l0 17.28c0 18.56 13.15 25.84 29.145 16.39l142.157-83.92c16.1-9.51 44.227-17.22 63.047-17.22l272.759 0c18.72 0 33.9-15.03 33.9-33.84L843.727 221.787c0-18.69-15.39-33.845-33.54-33.845L201.004 187.942c-18.525 0-33.54 15.035-33.54 33.845l0 473.321c0 18.69 14.995 33.84 34.13 33.84L235.094 728.948 235.094 728.948zM302.719 559.888c0-18.68 15.405-33.82 33.895-33.82l337.964 0c18.72 0 33.9 15.01 33.9 33.82 0 18.67-15.42 33.81-33.9 33.81L336.617 593.698C317.894 593.698 302.719 578.688 302.719 559.888L302.719 559.888zM302.719 357.009c0-18.675 15.405-33.812 33.895-33.812l337.964 0c18.72 0 33.9 15.007 33.9 33.812 0 18.67-15.42 33.81-33.9 33.81L336.617 390.819C317.894 390.819 302.719 375.814 302.719 357.009L302.719 357.009z" fill="currentColor" p-id="27574"></path></svg>