<?xml version="1.0" standalone="no"?><!DOCTYPE svg PUBLIC "-//W3C//DTD SVG 1.1//EN" "http://www.w3.org/Graphics/SVG/1.1/DTD/svg11.dtd"><svg t="1729668940977" class="icon" viewBox="0 0 1024 1024" version="1.1" xmlns="http://www.w3.org/2000/svg" p-id="22860" xmlns:xlink="http://www.w3.org/1999/xlink" width="200" height="200"><path d="M209.454545 465.454545v418.909091H139.636364L116.363636 465.454545h93.090909m10.938182-69.818181H105.425455A57.250909 57.250909 0 0 0 46.545455 454.283636l23.272727 446.836364A57.483636 57.483636 0 0 0 129.163636 954.181818h91.229091A57.250909 57.250909 0 0 0 279.272727 898.327273V451.490909A57.250909 57.250909 0 0 0 220.392727 395.636364zM574.836364 153.6a83.316364 83.316364 0 0 1 6.981818 44.450909l-17.221818 176.407273a83.781818 83.781818 0 0 0 82.618181 96.814545h219.461819a40.261818 40.261818 0 0 1 30.254545 13.498182 40.727273 40.727273 0 0 1 10.705455 29.323636L843.636364 884.363636H395.636364V422.632727L574.836364 153.6M546.909091 69.818182l-211.781818 317.672727A55.389091 55.389091 0 0 0 325.818182 418.909091v479.883636A55.156364 55.156364 0 0 0 380.974545 954.181818h475.229091a55.156364 55.156364 0 0 0 54.923637-49.803636L977.454545 522.938182a110.545455 110.545455 0 0 0-110.08-121.483637h-219.927272a13.730909 13.730909 0 0 1-13.265455-17.221818L651.636364 203.869091C657.454545 125.207273 617.192727 69.818182 546.909091 69.818182z" fill="currentColor" p-id="22861"></path></svg>